<?xml version="1.0" standalone="no"?>
<!DOCTYPE svg PUBLIC "-//W3C//DTD SVG 20010904//EN"
 "http://www.w3.org/TR/2001/REC-SVG-20010904/DTD/svg10.dtd">
<svg version="1.0" xmlns="http://www.w3.org/2000/svg"
 width="170.000000pt" height="170.000000pt" viewBox="0 0 170.000000 170.000000"
 preserveAspectRatio="xMidYMid meet">

<g transform="translate(0.000000,170.000000) scale(0.100000,-0.100000)"
fill="#000000" stroke="none">
<path d="M690 1675 c-321 -72 -564 -299 -651 -608 -19 -67 -23 -106 -23 -217
0 -163 15 -233 84 -375 149 -309 460 -492 800 -472 472 29 824 424 797 892
-22 362 -266 666 -617 765 -99 29 -297 36 -390 15z m238 -166 c44 -90 86 -234
97 -335 6 -57 5 -60 -22 -76 -15 -10 -35 -23 -44 -29 -13 -10 -35 -6 -110 19
-107 35 -199 57 -280 67 -44 5 -61 13 -85 38 -17 18 -34 37 -37 43 -9 15 22
245 34 261 17 19 149 70 214 82 98 18 108 19 150 17 40 -1 40 -1 83 -87z m172
47 c147 -50 322 -190 399 -319 44 -75 80 -174 96 -267 16 -88 9 -111 -55 -180
-32 -35 -43 -41 -62 -35 -13 4 -40 8 -60 9 -29 1 -48 12 -95 57 -32 30 -79 70
-105 88 -46 31 -48 34 -48 80 0 56 -24 94 -74 115 -32 13 -33 16 -45 101 -14
98 -49 218 -92 314 -16 35 -29 66 -29 69 0 10 103 -10 170 -32z m-675 -214
c-14 -122 -21 -144 -56 -163 -19 -10 -202 -49 -207 -44 -6 6 41 91 83 150 52
72 179 194 191 183 1 -2 -4 -58 -11 -126z m-57 -231 c44 -33 55 -58 71 -167 6
-39 23 -111 37 -160 51 -169 49 -157 29 -188 -17 -26 -22 -27 -64 -21 -56 8
-200 55 -266 86 -27 13 -55 35 -63 49 -18 35 -10 257 12 327 15 46 21 53 59
67 35 14 70 22 138 35 3 1 24 -12 47 -28z m269 4 c81 -16 258 -68 282 -84 7
-5 15 -26 18 -46 5 -50 17 -70 54 -92 30 -17 31 -20 25 -72 -4 -30 -21 -97
-39 -150 -40 -120 -58 -133 -181 -129 l-80 3 -20 40 c-24 46 -56 65 -108 65
-34 0 -39 4 -53 36 -23 55 -62 209 -76 297 l-12 78 34 35 c37 39 47 40 156 19z
m568 -235 c23 -16 68 -52 99 -81 55 -50 56 -52 50 -92 -4 -23 -11 -47 -16 -53
-23 -29 -332 -115 -357 -99 -5 3 2 36 15 73 13 38 31 106 41 152 17 81 19 84
58 106 53 29 59 29 110 -6z m390 -170 c-12 -70 -43 -167 -64 -200 -8 -11 -12
-8 -21 15 -18 46 -16 135 5 175 22 44 77 102 86 93 4 -5 2 -42 -6 -83z m-1310
-120 c44 -15 106 -33 138 -40 52 -10 60 -16 72 -44 19 -46 48 -68 99 -73 40
-5 49 -11 90 -64 25 -33 46 -68 46 -78 0 -40 -122 -121 -181 -121 -71 0 -210
100 -295 213 -49 65 -110 185 -121 238 l-6 30 39 -16 c21 -10 75 -30 119 -45z
m1162 5 c21 -14 43 -85 43 -139 0 -43 -114 -170 -215 -239 -62 -43 -178 -96
-208 -97 -39 0 -229 116 -248 152 -9 16 -1 34 48 108 32 49 67 92 77 96 11 3
27 15 35 26 11 13 47 25 114 39 53 11 132 33 175 49 82 31 136 33 179 5z
m-552 -95 c9 -14 -42 -103 -80 -140 -41 -40 -60 -35 -109 27 -42 54 -43 61
-15 97 19 25 25 26 109 26 49 0 92 -5 95 -10z m-47 -293 c31 -24 76 -54 100
-67 23 -13 42 -27 42 -31 0 -14 -90 -22 -184 -17 -85 5 -216 33 -216 47 0 3
20 17 45 30 25 13 62 37 83 52 20 16 45 29 55 29 10 0 44 -19 75 -43z"/>
</g>
</svg>
